<mxfile host="app.diagrams.net" modified="2020-09-23T11:55:38.568Z" agent="5.0 (Windows NT 10.0; Win64; x64) AppleWebKit/537.36 (KHTML, like Gecko) Chrome/85.0.4183.102 Safari/537.36" etag="BpjkMml52E0u7GNJ9cCR" version="13.7.4" type="github">
  <diagram id="lS6FSEpfENNUidl8pgp0" name="Page-1">
    <mxGraphModel dx="1038" dy="531" grid="1" gridSize="10" guides="1" tooltips="1" connect="1" arrows="1" fold="1" page="1" pageScale="1" pageWidth="850" pageHeight="1100" math="0" shadow="0">
      <root>
        <mxCell id="0" />
        <mxCell id="1" parent="0" />
        <mxCell id="kxp2x3skO5f2kSs0l1-3-11" value="" style="edgeStyle=orthogonalEdgeStyle;rounded=0;orthogonalLoop=1;jettySize=auto;html=1;" edge="1" parent="1" source="kxp2x3skO5f2kSs0l1-3-2" target="kxp2x3skO5f2kSs0l1-3-10">
          <mxGeometry relative="1" as="geometry" />
        </mxCell>
        <mxCell id="kxp2x3skO5f2kSs0l1-3-2" value="IDF Approval" style="shape=step;perimeter=stepPerimeter;whiteSpace=wrap;html=1;fixedSize=1;" vertex="1" parent="1">
          <mxGeometry x="80" y="170" width="120" height="80" as="geometry" />
        </mxCell>
        <mxCell id="kxp2x3skO5f2kSs0l1-3-3" value="Service&lt;br&gt;&amp;nbsp;Request" style="shape=step;perimeter=stepPerimeter;whiteSpace=wrap;html=1;fixedSize=1;" vertex="1" parent="1">
          <mxGeometry x="190" y="170" width="120" height="80" as="geometry" />
        </mxCell>
        <mxCell id="kxp2x3skO5f2kSs0l1-3-4" value="Prosecution &amp;amp;&lt;br&gt;Maintenance" style="shape=step;perimeter=stepPerimeter;whiteSpace=wrap;html=1;fixedSize=1;" vertex="1" parent="1">
          <mxGeometry x="300" y="170" width="120" height="80" as="geometry" />
        </mxCell>
        <mxCell id="kxp2x3skO5f2kSs0l1-3-5" value="Marketing" style="shape=step;perimeter=stepPerimeter;whiteSpace=wrap;html=1;fixedSize=1;" vertex="1" parent="1">
          <mxGeometry x="410" y="170" width="120" height="80" as="geometry" />
        </mxCell>
        <mxCell id="kxp2x3skO5f2kSs0l1-3-8" value="Indian" style="rounded=1;whiteSpace=wrap;html=1;gradientColor=none;fillColor=#EBF5FF;shadow=1;" vertex="1" parent="1">
          <mxGeometry x="49" y="399" width="101" height="41" as="geometry" />
        </mxCell>
        <mxCell id="kxp2x3skO5f2kSs0l1-3-9" value="International" style="rounded=1;whiteSpace=wrap;html=1;gradientColor=none;fillColor=#EBF5FF;shadow=1;" vertex="1" parent="1">
          <mxGeometry x="190" y="399" width="101" height="41" as="geometry" />
        </mxCell>
        <mxCell id="kxp2x3skO5f2kSs0l1-3-12" style="edgeStyle=orthogonalEdgeStyle;rounded=0;orthogonalLoop=1;jettySize=auto;html=1;entryX=0.5;entryY=0;entryDx=0;entryDy=0;" edge="1" parent="1" source="kxp2x3skO5f2kSs0l1-3-10" target="kxp2x3skO5f2kSs0l1-3-8">
          <mxGeometry relative="1" as="geometry" />
        </mxCell>
        <mxCell id="kxp2x3skO5f2kSs0l1-3-13" style="edgeStyle=orthogonalEdgeStyle;rounded=0;orthogonalLoop=1;jettySize=auto;html=1;exitX=0.5;exitY=1;exitDx=0;exitDy=0;entryX=0.5;entryY=0;entryDx=0;entryDy=0;" edge="1" parent="1" source="kxp2x3skO5f2kSs0l1-3-10" target="kxp2x3skO5f2kSs0l1-3-9">
          <mxGeometry relative="1" as="geometry" />
        </mxCell>
        <mxCell id="kxp2x3skO5f2kSs0l1-3-10" value="File Creation" style="rounded=1;whiteSpace=wrap;html=1;fillColor=#E0F2FF;shadow=1;gradientColor=#CCE5FF;" vertex="1" parent="1">
          <mxGeometry x="80" y="300" width="118" height="40" as="geometry" />
        </mxCell>
      </root>
    </mxGraphModel>
  </diagram>
</mxfile>
